<svg xmlns="http://www.w3.org/2000/svg" viewBox="0 0 1024 1024" role="img" aria-label="Hermes SnD premium app icon">
  <defs>
    <radialGradient id="bg" cx="26%" cy="15%" r="110%"><stop offset="0" stop-color="#163b32"/><stop offset=".42" stop-color="#081512"/><stop offset="1" stop-color="#020706"/></radialGradient>
    <linearGradient id="gold" x1=".12" y1=".05" x2=".88" y2=".96"><stop stop-color="#fff1bd"/><stop offset=".3" stop-color="#f5c967"/><stop offset=".68" stop-color="#c9892f"/><stop offset="1" stop-color="#70400f"/></linearGradient>
    <linearGradient id="cyan" x1="0" y1="0" x2="1" y2="1"><stop stop-color="#76f8ca"/><stop offset="1" stop-color="#59cfff"/></linearGradient>
    <filter id="glow" x="-40%" y="-40%" width="180%" height="180%"><feGaussianBlur stdDeviation="20" result="b"/><feMerge><feMergeNode in="b"/><feMergeNode in="SourceGraphic"/></feMerge></filter>
    <filter id="shadow" x="-30%" y="-30%" width="160%" height="170%"><feDropShadow dx="0" dy="28" stdDeviation="32" flood-color="#000" flood-opacity=".72"/></filter>
  </defs>
  <rect width="1024" height="1024" rx="226" fill="url(#bg)"/>
  <path d="M88 383C152 166 343 62 528 80c183 18 324 109 408 282" fill="none" stroke="#4af0b2" stroke-opacity=".12" stroke-width="13"/>
  <path d="M119 730C236 918 455 977 642 920c150-45 243-144 293-259" fill="none" stroke="#64d9ff" stroke-opacity=".1" stroke-width="10"/>
  <circle cx="512" cy="512" r="355" fill="none" stroke="url(#cyan)" stroke-opacity=".22" stroke-width="4"/>
  <circle cx="512" cy="512" r="301" fill="#091a16" fill-opacity=".58" stroke="#f5c967" stroke-opacity=".25" stroke-width="3"/>
  <path d="M718 254 512 160 306 254l-82 220 82 239 206 151 206-151 82-239z" fill="none" stroke="url(#gold)" stroke-width="20" stroke-linejoin="round" filter="url(#shadow)"/>
  <path d="M337 324h104v136h142V324h104v376H583V558H441v142H337z" fill="url(#gold)" filter="url(#shadow)"/>
  <path d="m681 339 68 142-68 204" fill="none" stroke="url(#cyan)" stroke-width="15" stroke-linecap="round" filter="url(#glow)"/>
  <circle cx="749" cy="481" r="13" fill="#70f3c5" filter="url(#glow)"/>
  <path d="M355 272c79-53 190-69 286-27" fill="none" stroke="#fff" stroke-opacity=".34" stroke-width="9" stroke-linecap="round"/>
</svg>
